<svg width="100%" height="100%" preserveAspectRatio="none" viewBox="0 0 185.742 71.387" xmlns="http://www.w3.org/2000/svg"><g id="svgGroup" stroke-linecap="round" fill-rule="evenodd" font-size="9pt" stroke="#000" stroke-width="0.25mm" fill="#000" style="stroke:#000;stroke-width:0.25mm;fill:#000"><path d="M 85.596 7.715 L 85.596 29.395 L 77.393 29.395 L 77.393 9.619 A 1.457 1.457 0 0 0 77.044 8.673 A 1.921 1.921 0 0 0 76.953 8.57 A 1.451 1.451 0 0 0 76.362 8.182 A 1.495 1.495 0 0 0 75.879 8.106 A 1.211 1.211 0 0 0 74.971 8.493 A 1.565 1.565 0 0 0 74.902 8.57 Q 74.512 9.034 74.512 9.619 L 74.512 29.688 L 82.813 35.694 A 6.709 6.709 0 0 1 84.508 37.27 Q 85.596 38.739 85.596 40.723 L 85.596 63.721 A 8.31 8.31 0 0 1 85.259 66.152 A 6.267 6.267 0 0 1 82.959 69.409 A 9.226 9.226 0 0 1 79.871 70.893 Q 78.571 71.256 77.027 71.352 A 18.42 18.42 0 0 1 75.879 71.387 A 15.853 15.853 0 0 1 73.071 71.153 Q 71.485 70.868 70.218 70.232 A 8.286 8.286 0 0 1 68.896 69.409 A 6.424 6.424 0 0 1 66.385 64.945 A 9.473 9.473 0 0 1 66.309 63.721 L 66.309 41.992 L 74.512 41.992 L 74.512 61.817 Q 74.512 62.403 74.902 62.842 A 1.287 1.287 0 0 0 75.388 63.191 A 1.309 1.309 0 0 0 75.879 63.282 A 1.512 1.512 0 0 0 76.531 63.143 A 1.498 1.498 0 0 0 76.953 62.842 A 1.531 1.531 0 0 0 77.272 62.39 A 1.376 1.376 0 0 0 77.393 61.817 L 77.393 41.7 L 68.994 35.694 A 6.33 6.33 0 0 1 67.28 34.037 Q 66.309 32.622 66.309 30.713 L 66.309 7.715 A 8.405 8.405 0 0 1 66.646 5.269 A 6.346 6.346 0 0 1 68.921 2.002 Q 71.533 0 75.879 0 A 15.689 15.689 0 0 1 78.799 0.256 Q 80.467 0.572 81.796 1.279 A 8.627 8.627 0 0 1 82.935 2.002 A 6.505 6.505 0 0 1 85.549 6.76 A 9.467 9.467 0 0 1 85.596 7.715 Z M 141.699 7.715 L 141.699 29.395 L 133.496 29.395 L 133.496 9.619 A 1.457 1.457 0 0 0 133.148 8.673 A 1.921 1.921 0 0 0 133.057 8.57 A 1.451 1.451 0 0 0 132.466 8.182 A 1.495 1.495 0 0 0 131.982 8.106 A 1.211 1.211 0 0 0 131.074 8.493 A 1.565 1.565 0 0 0 131.006 8.57 Q 130.615 9.034 130.615 9.619 L 130.615 61.817 Q 130.615 62.403 131.006 62.842 A 1.287 1.287 0 0 0 131.492 63.191 A 1.309 1.309 0 0 0 131.982 63.282 A 1.512 1.512 0 0 0 132.635 63.143 A 1.498 1.498 0 0 0 133.057 62.842 A 1.531 1.531 0 0 0 133.376 62.39 A 1.376 1.376 0 0 0 133.496 61.817 L 133.496 41.992 L 141.699 41.992 L 141.699 63.721 A 8.31 8.31 0 0 1 141.362 66.152 A 6.267 6.267 0 0 1 139.062 69.409 A 9.226 9.226 0 0 1 135.974 70.893 Q 134.674 71.256 133.131 71.352 A 18.42 18.42 0 0 1 131.982 71.387 A 15.853 15.853 0 0 1 129.175 71.153 Q 127.588 70.868 126.321 70.232 A 8.286 8.286 0 0 1 125 69.409 A 6.424 6.424 0 0 1 122.489 64.945 A 9.473 9.473 0 0 1 122.412 63.721 L 122.412 7.715 A 8.405 8.405 0 0 1 122.749 5.269 A 6.346 6.346 0 0 1 125.024 2.002 Q 127.637 0 131.982 0 A 15.689 15.689 0 0 1 134.902 0.256 Q 136.57 0.572 137.899 1.279 A 8.627 8.627 0 0 1 139.038 2.002 A 6.505 6.505 0 0 1 141.652 6.76 A 9.467 9.467 0 0 1 141.699 7.715 Z M 63.33 7.715 L 63.33 70.703 L 55.127 70.703 L 55.127 41.211 L 52.246 41.211 L 52.246 70.703 L 44.043 70.703 L 44.043 7.715 A 8.405 8.405 0 0 1 44.38 5.269 A 6.346 6.346 0 0 1 46.655 2.002 Q 49.268 0 53.613 0 A 15.689 15.689 0 0 1 56.533 0.256 Q 58.201 0.572 59.53 1.279 A 8.627 8.627 0 0 1 60.669 2.002 A 6.505 6.505 0 0 1 63.283 6.76 A 9.467 9.467 0 0 1 63.33 7.715 Z M 163.965 7.715 L 163.965 70.703 L 155.762 70.703 L 155.762 41.211 L 152.881 41.211 L 152.881 70.703 L 144.678 70.703 L 144.678 7.715 A 8.405 8.405 0 0 1 145.015 5.269 A 6.346 6.346 0 0 1 147.29 2.002 Q 149.902 0 154.248 0 A 15.689 15.689 0 0 1 157.168 0.256 Q 158.836 0.572 160.165 1.279 A 8.627 8.627 0 0 1 161.304 2.002 A 6.505 6.505 0 0 1 163.918 6.76 A 9.467 9.467 0 0 1 163.965 7.715 Z M 0 8.887 L 0 0.684 L 19.287 0.684 L 19.287 8.887 L 13.672 8.887 L 13.672 70.703 L 5.469 70.703 L 5.469 8.887 L 0 8.887 Z M 88.086 8.887 L 88.086 0.684 L 107.373 0.684 L 107.373 8.887 L 101.758 8.887 L 101.758 70.703 L 93.555 70.703 L 93.555 8.887 L 88.086 8.887 Z M 166.455 8.887 L 166.455 0.684 L 185.742 0.684 L 185.742 8.887 L 180.127 8.887 L 180.127 70.703 L 171.924 70.703 L 171.924 8.887 L 166.455 8.887 Z M 41.064 7.715 L 41.064 63.721 A 8.31 8.31 0 0 1 40.728 66.152 A 6.267 6.267 0 0 1 38.428 69.409 A 9.226 9.226 0 0 1 35.339 70.893 Q 34.039 71.256 32.496 71.352 A 18.42 18.42 0 0 1 31.348 71.387 A 15.853 15.853 0 0 1 28.54 71.153 Q 26.953 70.868 25.686 70.232 A 8.286 8.286 0 0 1 24.365 69.409 A 6.424 6.424 0 0 1 21.854 64.945 A 9.473 9.473 0 0 1 21.777 63.721 L 21.777 7.715 A 8.405 8.405 0 0 1 22.115 5.269 A 6.346 6.346 0 0 1 24.39 2.002 Q 27.002 0 31.348 0 A 15.689 15.689 0 0 1 34.268 0.256 Q 35.935 0.572 37.265 1.279 A 8.627 8.627 0 0 1 38.403 2.002 A 6.505 6.505 0 0 1 41.018 6.76 A 9.467 9.467 0 0 1 41.064 7.715 Z M 32.861 61.817 L 32.861 9.619 A 1.457 1.457 0 0 0 32.513 8.673 A 1.921 1.921 0 0 0 32.422 8.57 A 1.451 1.451 0 0 0 31.831 8.182 A 1.495 1.495 0 0 0 31.348 8.106 A 1.211 1.211 0 0 0 30.44 8.493 A 1.565 1.565 0 0 0 30.371 8.57 Q 29.98 9.034 29.98 9.619 L 29.98 61.817 Q 29.98 62.403 30.371 62.842 A 1.287 1.287 0 0 0 30.857 63.191 A 1.309 1.309 0 0 0 31.348 63.282 A 1.512 1.512 0 0 0 32 63.143 A 1.498 1.498 0 0 0 32.422 62.842 A 1.531 1.531 0 0 0 32.741 62.39 A 1.376 1.376 0 0 0 32.861 61.817 Z M 52.246 9.619 L 52.246 33.008 L 55.127 33.008 L 55.127 9.619 A 1.457 1.457 0 0 0 54.778 8.673 A 1.921 1.921 0 0 0 54.687 8.57 A 1.451 1.451 0 0 0 54.097 8.182 A 1.495 1.495 0 0 0 53.613 8.106 A 1.211 1.211 0 0 0 52.705 8.493 A 1.565 1.565 0 0 0 52.637 8.57 Q 52.246 9.034 52.246 9.619 Z M 152.881 9.619 L 152.881 33.008 L 155.762 33.008 L 155.762 9.619 A 1.457 1.457 0 0 0 155.413 8.673 A 1.921 1.921 0 0 0 155.322 8.57 A 1.451 1.451 0 0 0 154.732 8.182 A 1.495 1.495 0 0 0 154.248 8.106 A 1.211 1.211 0 0 0 153.34 8.493 A 1.565 1.565 0 0 0 153.271 8.57 Q 152.881 9.034 152.881 9.619 Z" vector-effect="non-scaling-stroke"/></g></svg>
