<svg width="100%" height="100%" preserveAspectRatio="none" viewBox="0 0 186 72" version="1.1" xmlns="http://www.w3.org/2000/svg" style="fill-rule:evenodd;clip-rule:evenodd;stroke-linejoin:round;stroke-miterlimit:2;"><g id="svgGroup"><path d="M85.596,7.715L85.596,29.395L77.393,29.395L77.393,9.619C77.393,9.272 77.269,8.937 77.044,8.673C77.015,8.638 76.985,8.603 76.953,8.57C76.791,8.394 76.588,8.261 76.362,8.182C76.206,8.13 76.043,8.105 75.879,8.106C75.535,8.1 75.205,8.241 74.971,8.493C74.947,8.518 74.924,8.544 74.902,8.57C74.642,8.879 74.512,9.229 74.512,9.619L74.512,29.688L82.813,35.694C83.465,36.117 84.039,36.65 84.508,37.27C85.233,38.249 85.596,39.4 85.596,40.723L85.596,63.721C85.605,64.544 85.491,65.363 85.259,66.152C84.867,67.459 84.06,68.603 82.959,69.409C82.031,70.092 80.984,70.595 79.871,70.893C79.004,71.135 78.056,71.288 77.027,71.352C76.645,71.376 76.262,71.387 75.879,71.387C74.938,71.393 73.998,71.314 73.071,71.153C72.014,70.963 71.063,70.656 70.218,70.232C69.752,70 69.31,69.724 68.896,69.409C67.477,68.334 66.567,66.716 66.385,64.945C66.333,64.539 66.308,64.13 66.309,63.721L66.309,41.992L74.512,41.992L74.512,61.817C74.512,62.208 74.642,62.549 74.902,62.842C75.034,62.995 75.201,63.114 75.388,63.191C75.544,63.253 75.711,63.283 75.879,63.282C76.104,63.285 76.327,63.237 76.531,63.143C76.688,63.068 76.831,62.966 76.953,62.842C77.086,62.712 77.194,62.559 77.272,62.39C77.353,62.21 77.394,62.014 77.393,61.817L77.393,41.7L68.994,35.694C68.323,35.255 67.741,34.693 67.28,34.037C66.633,33.094 66.309,31.986 66.309,30.713L66.309,7.715C66.3,6.888 66.414,6.063 66.646,5.269C67.034,3.964 67.832,2.819 68.921,2.002C70.662,0.667 72.982,0 75.879,0C76.858,-0.006 77.836,0.08 78.799,0.256C79.911,0.467 80.91,0.808 81.796,1.279C82.194,1.49 82.575,1.732 82.935,2.002C84.457,3.131 85.413,4.87 85.549,6.76C85.581,7.077 85.596,7.396 85.596,7.715ZM141.699,7.715L141.699,29.395L133.496,29.395L133.496,9.619C133.496,9.272 133.373,8.937 133.148,8.673C133.119,8.638 133.089,8.603 133.057,8.57C132.895,8.394 132.692,8.261 132.466,8.182C132.31,8.13 132.146,8.105 131.982,8.106C131.638,8.1 131.308,8.241 131.074,8.493C131.05,8.518 131.028,8.544 131.006,8.57C130.745,8.879 130.615,9.229 130.615,9.619L130.615,61.817C130.615,62.208 130.745,62.549 131.006,62.842C131.138,62.995 131.305,63.114 131.492,63.191C131.648,63.252 131.814,63.283 131.982,63.282C132.207,63.285 132.43,63.237 132.635,63.143C132.792,63.068 132.935,62.966 133.057,62.842C133.19,62.712 133.298,62.559 133.376,62.39C133.457,62.21 133.498,62.014 133.496,61.817L133.496,41.992L141.699,41.992L141.699,63.721C141.708,64.544 141.594,65.363 141.362,66.152C140.97,67.459 140.163,68.603 139.062,69.409C138.134,70.092 137.087,70.595 135.974,70.893C135.107,71.135 134.16,71.288 133.131,71.352C132.748,71.376 132.365,71.387 131.982,71.387C131.041,71.392 130.102,71.314 129.175,71.153C128.117,70.963 127.166,70.656 126.321,70.232C125.856,70 125.414,69.724 125,69.409C123.581,68.334 122.671,66.716 122.489,64.945C122.437,64.539 122.411,64.13 122.412,63.721L122.412,7.715C122.403,6.888 122.517,6.063 122.749,5.269C123.137,3.964 123.935,2.819 125.024,2.002C126.766,0.667 129.085,0 131.982,0C132.961,-0.006 133.939,0.08 134.902,0.256C136.014,0.467 137.013,0.808 137.899,1.279C138.297,1.49 138.678,1.732 139.038,2.002C140.56,3.131 141.516,4.87 141.652,6.76C141.684,7.077 141.699,7.396 141.699,7.715ZM63.33,7.715L63.33,71.387L55.127,71.387L55.127,41.211L52.246,41.211L52.246,71.387L44.043,71.387L44.043,7.715C44.034,6.888 44.148,6.063 44.38,5.269C44.768,3.964 45.566,2.819 46.655,2.002C48.397,0.667 50.716,0 53.613,0C54.592,-0.006 55.57,0.08 56.533,0.256C57.645,0.467 58.644,0.808 59.53,1.279C59.928,1.49 60.309,1.732 60.669,2.002C62.191,3.131 63.147,4.87 63.283,6.76C63.315,7.077 63.33,7.396 63.33,7.715ZM163.965,7.715L163.965,71.387L155.762,71.387L155.762,41.211L152.881,41.211L152.881,71.387L144.678,71.387L144.678,7.715C144.669,6.888 144.783,6.063 145.015,5.269C145.403,3.964 146.201,2.819 147.29,2.002C149.031,0.667 151.351,0 154.248,0C155.227,-0.006 156.205,0.08 157.168,0.256C158.28,0.467 159.279,0.808 160.165,1.279C160.563,1.49 160.944,1.732 161.304,2.002C162.826,3.131 163.782,4.87 163.918,6.76C163.95,7.077 163.965,7.396 163.965,7.715ZM0,8.203L0,0L19.287,0L19.287,8.203L13.672,8.203L13.672,71.387L5.469,71.387L5.469,8.203L0,8.203ZM88.086,8.203L88.086,0L107.373,0L107.373,8.203L101.758,8.203L101.758,71.387L93.555,71.387L93.555,8.203L88.086,8.203ZM166.455,8.203L166.455,0L185.742,0L185.742,8.203L180.127,8.203L180.127,71.387L171.924,71.387L171.924,8.203L166.455,8.203ZM41.064,7.715L41.064,63.721C41.073,64.543 40.96,65.363 40.728,66.152C40.336,67.459 39.529,68.603 38.428,69.409C37.5,70.092 36.452,70.596 35.339,70.893C34.472,71.135 33.525,71.288 32.496,71.352C32.114,71.376 31.731,71.387 31.348,71.387C30.407,71.393 29.467,71.314 28.54,71.153C27.482,70.963 26.531,70.656 25.686,70.232C25.221,70 24.779,69.724 24.365,69.409C22.946,68.334 22.036,66.716 21.854,64.945C21.802,64.539 21.776,64.13 21.777,63.721L21.777,7.715C21.769,6.887 21.883,6.063 22.115,5.269C22.503,3.964 23.301,2.819 24.39,2.002C26.131,0.667 28.451,0 31.348,0C32.327,-0.006 33.305,0.08 34.268,0.256C35.379,0.467 36.378,0.808 37.265,1.279C37.663,1.49 38.043,1.732 38.403,2.002C39.926,3.13 40.882,4.87 41.018,6.76C41.049,7.077 41.065,7.396 41.064,7.715ZM32.861,61.817L32.861,9.619C32.861,9.272 32.738,8.937 32.513,8.673C32.484,8.638 32.454,8.603 32.422,8.57C32.26,8.394 32.057,8.261 31.831,8.182C31.675,8.13 31.512,8.105 31.348,8.106C31.004,8.1 30.674,8.241 30.44,8.493C30.416,8.518 30.393,8.544 30.371,8.57C30.11,8.879 29.98,9.229 29.98,9.619L29.98,61.817C29.98,62.208 30.11,62.549 30.371,62.842C30.503,62.995 30.67,63.114 30.857,63.191C31.013,63.253 31.18,63.283 31.348,63.282C31.573,63.285 31.796,63.237 32,63.143C32.157,63.068 32.3,62.966 32.422,62.842C32.555,62.712 32.663,62.559 32.741,62.39C32.822,62.21 32.863,62.014 32.861,61.817ZM52.246,9.619L52.246,33.008L55.127,33.008L55.127,9.619C55.127,9.272 55.003,8.937 54.778,8.673C54.749,8.638 54.719,8.603 54.687,8.57C54.525,8.394 54.323,8.261 54.097,8.182C53.941,8.13 53.777,8.105 53.613,8.106C53.269,8.1 52.939,8.241 52.705,8.493C52.681,8.518 52.659,8.544 52.637,8.57C52.376,8.879 52.246,9.229 52.246,9.619ZM152.881,9.619L152.881,33.008L155.762,33.008L155.762,9.619C155.762,9.272 155.638,8.937 155.413,8.673C155.384,8.638 155.354,8.603 155.322,8.57C155.16,8.394 154.958,8.261 154.732,8.182C154.576,8.13 154.412,8.105 154.248,8.106C153.904,8.1 153.574,8.241 153.34,8.493C153.316,8.518 153.293,8.544 153.271,8.57C153.011,8.879 152.881,9.229 152.881,9.619Z"/></g></svg>
